<?xml version="1.0" encoding="iso-8859-1"?>
<!-- Generator: Adobe Illustrator 19.0.0, SVG Export Plug-In . SVG Version: 6.00 Build 0)  -->
<svg version="1.1" id="Capa_1" xmlns="http://www.w3.org/2000/svg" xmlns:xlink="http://www.w3.org/1999/xlink" x="0px" y="0px"
	 viewBox="0 0 511.343 511.343" style="enable-background:new 0 0 511.343 511.343;" xml:space="preserve">
<polygon style="fill:#FFCE54;" points="491.369,159.795 3.994,159.795 3.994,119.846 507.35,119.846 "/>
<g style="opacity:0.2;">
	<polygon points="499.36,119.846 483.38,159.795 491.369,159.795 507.35,119.846 	"/>
</g>
<g style="opacity:0.2;">
	<polygon points="139.82,159.795 239.693,159.795 229.705,119.846 139.82,119.846 	"/>
</g>
<rect x="147.812" y="175.772" style="fill:#FFCE54;" width="55.928" height="327.58"/>
<polygon style="fill:#FC6E51;" points="235.697,175.775 131.831,175.775 131.831,111.857 219.718,111.857 "/>
<polygon style="fill:#E6E9ED;" points="235.697,175.775 131.831,175.775 131.831,111.857 219.718,111.857 "/>
<polygon style="fill:#FFCE54;" points="416.599,359.539 407.485,359.539 399.495,327.58 423.465,327.58 "/>
<g>
	<rect x="147.812" y="127.832" style="fill:#5D9CEC;" width="31.959" height="31.959"/>
	<polygon style="fill:#5D9CEC;" points="235.697,175.775 203.738,175.775 203.738,111.857 219.718,111.857 	"/>
</g>
<g style="opacity:0.2;">
	<polygon points="219.718,111.857 211.729,111.857 227.708,175.775 235.697,175.775 	"/>
</g>
<g>
	<rect x="395.492" y="159.792" style="fill:#656D78;" width="31.959" height="15.979"/>
	<path style="fill:#656D78;" d="M35.953,183.764h31.96V95.877h-15.98c0,0-15.979,0-15.979,15.979S35.953,183.764,35.953,183.764z"/>
</g>
<g style="opacity:0.2;">
	<path style="fill:#FFFFFF;" d="M59.923,95.877h-7.99c0,0-15.979,0-15.979,15.979s0,71.907,0,71.907h7.99c0,0,0-55.928,0-71.907
		S59.923,95.877,59.923,95.877z"/>
</g>
<g style="opacity:0.5;">
	<rect x="3.994" y="119.842" style="fill:#FFFFFF;" width="7.99" height="39.949"/>
</g>
<g style="opacity:0.3;">
	<rect x="131.832" y="111.862" style="fill:#FFFFFF;" width="7.95" height="63.918"/>
</g>
<g style="opacity:0.2;">
	<rect x="123.882" y="119.842" width="7.951" height="39.949"/>
</g>
<g style="opacity:0.2;">
	<rect x="67.912" y="119.842" width="7.95" height="39.949"/>
</g>
<g style="opacity:0.2;">
	<rect x="28.003" y="119.842" width="7.95" height="39.949"/>
</g>
<g style="opacity:0.2;">
	<rect x="59.922" y="95.872" width="7.99" height="87.89"/>
</g>
<g style="opacity:0.3;">
	<rect x="147.812" y="127.832" style="fill:#FFFFFF;" width="7.989" height="31.959"/>
</g>
<g style="opacity:0.2;">
	<rect x="171.782" y="127.832" width="7.99" height="31.959"/>
</g>
<g style="opacity:0.2;">
	<rect x="395.492" y="159.792" style="fill:#FFFFFF;" width="7.99" height="15.979"/>
</g>
<g style="opacity:0.2;">
	<rect x="419.462" y="159.792" width="7.989" height="15.979"/>
</g>
<g style="opacity:0.4;">
	<rect x="147.812" y="175.772" style="fill:#FFFFFF;" width="7.989" height="327.58"/>
</g>
<g style="opacity:0.2;">
	<rect x="195.752" y="175.772" width="7.989" height="327.58"/>
</g>
<g>
	<path style="fill:#3A3847;" d="M147.811,499.36c-2.208,0-3.995-1.787-3.995-3.994V183.764c0-2.208,1.787-3.995,3.995-3.995
		s3.994,1.787,3.994,3.995v311.602C151.805,497.572,150.019,499.36,147.811,499.36z"/>
	<path style="fill:#3A3847;" d="M203.738,499.36c-2.208,0-3.995-1.787-3.995-3.994V183.764c0-2.208,1.787-3.995,3.995-3.995
		s3.995,1.787,3.995,3.995v311.602C207.734,497.572,205.946,499.36,203.738,499.36z"/>
	<path style="fill:#3A3847;" d="M187.759,475.391c-1.021,0-2.044-0.391-2.824-1.171l-23.97-23.97c-1.561-1.56-1.561-4.088,0-5.648
		s4.089-1.561,5.649,0l23.97,23.969c1.56,1.561,1.56,4.089,0,5.649C189.804,475,188.781,475.391,187.759,475.391z"/>
	<path style="fill:#3A3847;" d="M163.79,475.391c-1.022,0-2.045-0.391-2.825-1.171c-1.561-1.561-1.561-4.089,0-5.649l23.97-23.969
		c1.561-1.561,4.089-1.561,5.649,0s1.56,4.089,0,5.648l-23.97,23.97C165.834,475,164.812,475.391,163.79,475.391z"/>
	<path style="fill:#3A3847;" d="M187.759,435.442c-1.021,0-2.044-0.391-2.824-1.17l-23.97-23.97c-1.561-1.561-1.561-4.089,0-5.649
		s4.089-1.561,5.649,0l23.97,23.97c1.56,1.561,1.56,4.089,0,5.649C189.804,435.051,188.781,435.442,187.759,435.442z"/>
	<path style="fill:#3A3847;" d="M163.79,435.442c-1.022,0-2.045-0.391-2.825-1.17c-1.561-1.561-1.561-4.089,0-5.649l23.97-23.97
		c1.561-1.561,4.089-1.561,5.649,0s1.56,4.089,0,5.649l-23.97,23.97C165.834,435.051,164.812,435.442,163.79,435.442z"/>
	<path style="fill:#3A3847;" d="M187.759,395.492c-1.021,0-2.044-0.39-2.824-1.17l-23.97-23.969c-1.561-1.561-1.561-4.089,0-5.649
		s4.089-1.561,5.649,0l23.97,23.97c1.56,1.56,1.56,4.088,0,5.648C189.804,395.103,188.781,395.492,187.759,395.492z"/>
	<path style="fill:#3A3847;" d="M163.79,395.492c-1.022,0-2.045-0.39-2.825-1.17c-1.561-1.561-1.561-4.089,0-5.648l23.97-23.97
		c1.561-1.561,4.089-1.561,5.649,0s1.56,4.089,0,5.649l-23.97,23.969C165.834,395.103,164.812,395.492,163.79,395.492z"/>
	<path style="fill:#3A3847;" d="M187.759,355.544c-1.021,0-2.044-0.39-2.824-1.171l-23.97-23.969c-1.561-1.561-1.561-4.089,0-5.649
		s4.089-1.561,5.649,0l23.97,23.97c1.56,1.561,1.56,4.088,0,5.648C189.804,355.154,188.781,355.544,187.759,355.544z"/>
	<path style="fill:#3A3847;" d="M163.79,355.544c-1.022,0-2.045-0.39-2.825-1.171c-1.561-1.561-1.561-4.088,0-5.648l23.97-23.97
		c1.561-1.561,4.089-1.561,5.649,0s1.56,4.089,0,5.649l-23.97,23.969C165.834,355.154,164.812,355.544,163.79,355.544z"/>
	<path style="fill:#3A3847;" d="M187.759,315.595c-1.021,0-2.044-0.39-2.824-1.17l-23.97-23.97c-1.561-1.561-1.561-4.088,0-5.648
		s4.089-1.561,5.649,0l23.97,23.969c1.56,1.561,1.56,4.089,0,5.649C189.804,315.205,188.781,315.595,187.759,315.595z"/>
	<path style="fill:#3A3847;" d="M163.79,315.595c-1.022,0-2.045-0.39-2.825-1.17c-1.561-1.561-1.561-4.089,0-5.649l23.97-23.969
		c1.561-1.561,4.089-1.561,5.649,0s1.56,4.088,0,5.648l-23.97,23.97C165.834,315.205,164.812,315.595,163.79,315.595z"/>
	<path style="fill:#3A3847;" d="M187.759,275.647c-1.021,0-2.044-0.391-2.824-1.171l-23.97-23.969c-1.561-1.561-1.561-4.089,0-5.649
		s4.089-1.561,5.649,0l23.97,23.97c1.56,1.561,1.56,4.088,0,5.648C189.804,275.256,188.781,275.647,187.759,275.647z"/>
	<path style="fill:#3A3847;" d="M163.79,275.647c-1.022,0-2.045-0.391-2.825-1.171c-1.561-1.561-1.561-4.088,0-5.648l23.97-23.97
		c1.561-1.561,4.089-1.561,5.649,0s1.56,4.089,0,5.649l-23.97,23.969C165.834,275.256,164.812,275.647,163.79,275.647z"/>
	<path style="fill:#3A3847;" d="M187.759,235.697c-1.021,0-2.044-0.39-2.824-1.17l-23.97-23.97c-1.561-1.561-1.561-4.088,0-5.649
		c1.561-1.56,4.089-1.56,5.649,0l23.97,23.969c1.56,1.561,1.56,4.089,0,5.649C189.804,235.308,188.781,235.697,187.759,235.697z"/>
	<path style="fill:#3A3847;" d="M163.79,235.697c-1.022,0-2.045-0.39-2.825-1.17c-1.561-1.561-1.561-4.089,0-5.649l23.97-23.969
		c1.561-1.56,4.089-1.56,5.649,0c1.56,1.561,1.56,4.088,0,5.649l-23.97,23.97C165.834,235.308,164.812,235.697,163.79,235.697z"/>
	<path style="fill:#3A3847;" d="M235.697,179.769H131.831c-2.208,0-3.995-1.787-3.995-3.995s1.787-3.995,3.995-3.995h103.866
		c2.208,0,3.995,1.787,3.995,3.995S237.905,179.769,235.697,179.769z"/>
	<path style="fill:#3A3847;" d="M235.697,179.769c-1.794,0-3.425-1.209-3.878-3.027l-15.979-63.918
		c-0.53-2.138,0.765-4.307,2.911-4.841c2.106-0.562,4.314,0.765,4.845,2.906l15.979,63.918c0.531,2.138-0.765,4.307-2.91,4.842
		C236.345,179.731,236.018,179.769,235.697,179.769z"/>
	<path style="fill:#3A3847;" d="M219.718,115.851h-87.887c-2.208,0-3.995-1.787-3.995-3.995s1.787-3.995,3.995-3.995h87.887
		c2.208,0,3.995,1.787,3.995,3.995C223.713,114.065,221.926,115.851,219.718,115.851z"/>
	<path style="fill:#3A3847;" d="M131.831,179.769c-2.208,0-3.995-1.787-3.995-3.995v-63.918c0-2.208,1.787-3.995,3.995-3.995
		s3.994,1.787,3.994,3.995v63.918C135.825,177.983,134.039,179.769,131.831,179.769z"/>
	<path style="fill:#3A3847;" d="M203.738,171.779c-2.208,0-3.995-1.787-3.995-3.995v-47.938c0-2.208,1.787-3.995,3.995-3.995
		s3.995,1.787,3.995,3.995v47.938C207.734,169.993,205.946,171.779,203.738,171.779z"/>
	<path style="fill:#3A3847;" d="M507.35,123.841H235.697c-2.208,0-3.994-1.787-3.994-3.995s1.786-3.995,3.994-3.995h271.652
		c2.208,0,3.994,1.787,3.994,3.995S509.558,123.841,507.35,123.841z"/>
	<path style="fill:#3A3847;" d="M491.369,163.79H243.688c-2.208,0-3.995-1.787-3.995-3.995s1.787-3.995,3.995-3.995H491.37
		c2.209,0,3.996,1.787,3.996,3.995S493.578,163.79,491.369,163.79z"/>
	<path style="fill:#3A3847;" d="M491.369,163.79c-0.491,0-0.998-0.089-1.482-0.285c-2.052-0.819-3.043-3.145-2.223-5.192
		l15.979-39.949c0.82-2.048,3.152-3.051,5.189-2.228c2.052,0.819,3.043,3.145,2.224,5.192l-15.979,39.949
		C494.451,162.842,492.953,163.79,491.369,163.79z"/>
	<path style="fill:#3A3847;" d="M395.492,179.769c-2.208,0-3.994-1.787-3.994-3.995v-7.99c0-2.208,1.786-3.995,3.994-3.995
		c2.209,0,3.995,1.787,3.995,3.995v7.99C399.487,177.983,397.701,179.769,395.492,179.769z"/>
	<path style="fill:#3A3847;" d="M427.451,179.769h-31.959c-2.208,0-3.994-1.787-3.994-3.995s1.786-3.995,3.994-3.995h31.959
		c2.209,0,3.995,1.787,3.995,3.995S429.66,179.769,427.451,179.769z"/>
	<path style="fill:#3A3847;" d="M427.451,179.769c-2.207,0-3.994-1.787-3.994-3.995v-7.99c0-2.208,1.787-3.995,3.994-3.995
		c2.209,0,3.995,1.787,3.995,3.995v7.99C431.446,177.983,429.66,179.769,427.451,179.769z"/>
	<path style="fill:#3A3847;" d="M411.473,315.595c-2.209,0-3.995-1.786-3.995-3.995V191.754c0-2.208,1.786-3.995,3.995-3.995
		c2.207,0,3.994,1.787,3.994,3.995V311.6C415.467,313.809,413.68,315.595,411.473,315.595z"/>
	<path style="fill:#3A3847;" d="M415.475,363.533h-7.989c-1.834,0-3.434-1.248-3.878-3.027l-7.99-31.959
		c-0.296-1.193-0.031-2.457,0.726-3.425c0.757-0.976,1.92-1.537,3.152-1.537h23.97c1.232,0,2.395,0.562,3.152,1.537
		c0.756,0.968,1.021,2.231,0.726,3.425l-7.99,31.959C418.908,362.285,417.309,363.533,415.475,363.533z M410.606,355.544h1.748
		l5.992-23.97h-13.732L410.606,355.544z"/>
	<path style="fill:#3A3847;" d="M407.953,395.789c-1.639,0-3.316-0.312-4.947-0.952c-4.993-1.95-7.864-6.405-7.498-11.61
		c0.164-2.207,2.24-3.893,4.269-3.697c2.208,0.155,3.862,2.06,3.706,4.26c-0.164,2.247,1.459,3.23,2.435,3.612
		c1.677,0.663,4.089,0.554,5.478-1.171c2.434-3.035,1.817-11.056-7.226-24.46c-1.232-1.826-0.749-4.308,1.085-5.54
		c1.825-1.232,4.307-0.765,5.547,1.076c13.521,20.053,10.081,29.861,6.828,33.918C415.264,394.182,411.698,395.789,407.953,395.789z
		"/>
	<path style="fill:#3A3847;" d="M259.667,151.805c-1.022,0-2.044-0.39-2.825-1.17l-15.979-15.979c-1.561-1.561-1.561-4.089,0-5.649
		c1.56-1.561,4.088-1.561,5.648,0l15.979,15.979c1.561,1.561,1.561,4.089,0,5.649C261.711,151.415,260.69,151.805,259.667,151.805z"
		/>
	<path style="fill:#3A3847;" d="M243.688,151.805c-1.022,0-2.044-0.39-2.824-1.17c-1.561-1.561-1.561-4.089,0-5.649l15.979-15.979
		c1.561-1.561,4.089-1.561,5.649,0s1.561,4.089,0,5.649l-15.979,15.979C245.732,151.415,244.709,151.805,243.688,151.805z"/>
	<path style="fill:#3A3847;" d="M107.861,151.805c-1.022,0-2.044-0.39-2.824-1.17l-15.979-15.979c-1.561-1.561-1.561-4.089,0-5.649
		c1.561-1.56,4.088-1.561,5.648,0l15.979,15.979c1.561,1.561,1.561,4.089,0,5.649C109.905,151.415,108.884,151.805,107.861,151.805z
		"/>
	<path style="fill:#3A3847;" d="M91.882,151.805c-1.022,0-2.044-0.39-2.824-1.17c-1.561-1.561-1.561-4.089,0-5.649l15.979-15.979
		c1.561-1.561,4.088-1.561,5.648,0s1.561,4.089,0,5.649l-15.979,15.979C93.926,151.415,92.904,151.805,91.882,151.805z"/>
	<path style="fill:#3A3847;" d="M291.626,151.805c-1.022,0-2.044-0.39-2.825-1.17l-15.979-15.979c-1.561-1.561-1.561-4.089,0-5.649
		c1.561-1.56,4.088-1.561,5.648,0l15.979,15.979c1.561,1.561,1.561,4.089,0,5.649C293.67,151.415,292.649,151.805,291.626,151.805z"
		/>
	<path style="fill:#3A3847;" d="M275.647,151.805c-1.022,0-2.045-0.39-2.824-1.17c-1.561-1.561-1.561-4.089,0-5.649l15.979-15.979
		c1.561-1.561,4.089-1.561,5.649,0s1.561,4.089,0,5.649l-15.979,15.979C277.691,151.415,276.668,151.805,275.647,151.805z"/>
	<path style="fill:#3A3847;" d="M323.585,151.805c-1.022,0-2.044-0.39-2.825-1.17l-15.979-15.979c-1.561-1.561-1.561-4.089,0-5.649
		c1.561-1.56,4.088-1.561,5.648,0l15.979,15.979c1.561,1.561,1.561,4.089,0,5.649C325.629,151.415,324.608,151.805,323.585,151.805z
		"/>
	<path style="fill:#3A3847;" d="M307.606,151.805c-1.022,0-2.045-0.39-2.824-1.17c-1.561-1.561-1.561-4.089,0-5.649l15.979-15.979
		c1.561-1.561,4.089-1.561,5.649,0s1.561,4.089,0,5.649l-15.979,15.979C309.65,151.415,308.627,151.805,307.606,151.805z"/>
	<path style="fill:#3A3847;" d="M355.544,151.805c-1.022,0-2.044-0.39-2.825-1.17l-15.979-15.979c-1.561-1.561-1.561-4.089,0-5.649
		c1.561-1.56,4.088-1.561,5.648,0l15.979,15.979c1.561,1.561,1.561,4.089,0,5.649C357.588,151.415,356.567,151.805,355.544,151.805z
		"/>
	<path style="fill:#3A3847;" d="M339.565,151.805c-1.022,0-2.045-0.39-2.824-1.17c-1.561-1.561-1.561-4.089,0-5.649l15.979-15.979
		c1.561-1.561,4.089-1.561,5.649,0s1.561,4.089,0,5.649l-15.979,15.979C341.609,151.415,340.586,151.805,339.565,151.805z"/>
	<path style="fill:#3A3847;" d="M387.503,151.805c-1.022,0-2.044-0.39-2.824-1.17L368.7,134.656c-1.561-1.561-1.561-4.089,0-5.649
		c1.561-1.56,4.088-1.561,5.648,0l15.979,15.979c1.561,1.561,1.561,4.089,0,5.649C389.547,151.415,388.526,151.805,387.503,151.805z
		"/>
	<path style="fill:#3A3847;" d="M371.524,151.805c-1.022,0-2.045-0.39-2.824-1.17c-1.561-1.561-1.561-4.089,0-5.649l15.979-15.979
		c1.56-1.561,4.088-1.561,5.648,0s1.561,4.089,0,5.649l-15.979,15.979C373.568,151.415,372.545,151.805,371.524,151.805z"/>
	<path style="fill:#3A3847;" d="M419.462,151.805c-1.022,0-2.044-0.39-2.824-1.17l-15.979-15.979c-1.561-1.561-1.561-4.089,0-5.649
		c1.561-1.56,4.088-1.561,5.648,0l15.979,15.979c1.561,1.561,1.561,4.089,0,5.649C421.506,151.415,420.484,151.805,419.462,151.805z
		"/>
	<path style="fill:#3A3847;" d="M403.483,151.805c-1.022,0-2.044-0.39-2.824-1.17c-1.561-1.561-1.561-4.089,0-5.649l15.979-15.979
		c1.561-1.561,4.088-1.561,5.648,0s1.561,4.089,0,5.649l-15.979,15.979C405.526,151.415,404.505,151.805,403.483,151.805z"/>
	<path style="fill:#3A3847;" d="M451.421,151.805c-1.022,0-2.044-0.39-2.824-1.17l-15.979-15.979c-1.561-1.561-1.561-4.089,0-5.649
		c1.561-1.56,4.088-1.561,5.648,0l15.979,15.979c1.561,1.561,1.561,4.089,0,5.649C453.465,151.415,452.443,151.805,451.421,151.805z
		"/>
	<path style="fill:#3A3847;" d="M435.442,151.805c-1.022,0-2.044-0.39-2.824-1.17c-1.561-1.561-1.561-4.089,0-5.649l15.979-15.979
		c1.561-1.561,4.089-1.561,5.648,0c1.561,1.561,1.561,4.089,0,5.649l-15.979,15.979
		C437.485,151.415,436.464,151.805,435.442,151.805z"/>
	<path style="fill:#3A3847;" d="M483.38,151.805c-1.022,0-2.044-0.39-2.824-1.17l-15.979-15.979c-1.561-1.561-1.561-4.089,0-5.649
		c1.561-1.56,4.088-1.561,5.648,0l15.98,15.979c1.56,1.561,1.56,4.089,0,5.649C485.424,151.415,484.402,151.805,483.38,151.805z"/>
	<path style="fill:#3A3847;" d="M467.401,151.805c-1.021,0-2.044-0.39-2.824-1.17c-1.561-1.561-1.561-4.089,0-5.649l15.979-15.979
		c1.561-1.561,4.089-1.561,5.649,0s1.56,4.089,0,5.649l-15.98,15.979C469.445,151.415,468.423,151.805,467.401,151.805z"/>
	<path style="fill:#3A3847;" d="M123.841,123.841H75.902c-2.208,0-3.995-1.787-3.995-3.995s1.787-3.995,3.995-3.995h47.938
		c2.208,0,3.995,1.787,3.995,3.995S126.049,123.841,123.841,123.841z"/>
	<path style="fill:#3A3847;" d="M123.841,163.79H75.902c-2.208,0-3.995-1.787-3.995-3.995s1.787-3.995,3.995-3.995h47.938
		c2.208,0,3.995,1.787,3.995,3.995S126.049,163.79,123.841,163.79z"/>
	<path style="fill:#3A3847;" d="M67.913,187.759h-31.96c-2.208,0-3.994-1.787-3.994-3.995v-71.907
		c0-15.8,13.069-19.975,19.974-19.975h15.98c2.208,0,3.994,1.787,3.994,3.995v87.887C71.907,185.972,70.121,187.759,67.913,187.759z
		 M39.948,179.769h23.97V99.872H51.933c-1.981,0.023-11.984,0.706-11.984,11.985L39.948,179.769L39.948,179.769z"/>
	<path style="fill:#3A3847;" d="M27.964,123.841H3.994c-2.208,0-3.994-1.787-3.994-3.995s1.786-3.995,3.994-3.995h23.97
		c2.208,0,3.995,1.787,3.995,3.995S30.172,123.841,27.964,123.841z"/>
	<path style="fill:#3A3847;" d="M19.974,163.79H3.994c-2.208,0-3.994-1.787-3.994-3.995s1.786-3.995,3.994-3.995h15.979
		c2.209,0,3.995,1.787,3.995,3.995S22.183,163.79,19.974,163.79z"/>
	<path style="fill:#3A3847;" d="M175.775,99.872c-2.208,0-3.995-1.787-3.995-3.995V7.989c0-2.208,1.787-3.995,3.995-3.995
		s3.995,1.787,3.995,3.995v87.888C179.77,98.085,177.983,99.872,175.775,99.872z"/>
	<path style="fill:#3A3847;" d="M3.994,163.79c-2.208,0-3.994-1.787-3.994-3.995v-39.949c0-2.208,1.786-3.995,3.994-3.995
		c2.209,0,3.995,1.787,3.995,3.995v39.949C7.989,162.003,6.203,163.79,3.994,163.79z"/>
	<path style="fill:#3A3847;" d="M83.893,107.861c-1.062,0-2.115-0.417-2.903-1.249c-1.514-1.599-1.443-4.127,0.156-5.645
		l75.903-71.908c1.606-1.525,4.127-1.452,5.648,0.152c1.514,1.6,1.443,4.128-0.156,5.646l-75.902,71.908
		C85.866,107.499,84.875,107.861,83.893,107.861z"/>
	<path style="fill:#3A3847;" d="M459.418,107.861c-0.343,0-0.686-0.043-1.037-0.137L190.716,35.817
		c-2.13-0.574-3.394-2.766-2.816-4.896c0.569-2.13,2.746-3.394,4.893-2.82l267.664,71.907c2.13,0.574,3.395,2.767,2.817,4.896
		C462.797,106.687,461.182,107.861,459.418,107.861z"/>
	<path style="fill:#3A3847;" d="M147.811,163.79c-2.208,0-3.995-1.787-3.995-3.995v-31.959c0-2.208,1.787-3.995,3.995-3.995
		s3.994,1.787,3.994,3.995v31.959C151.805,162.003,150.019,163.79,147.811,163.79z"/>
	<path style="fill:#3A3847;" d="M179.77,163.79h-31.959c-2.208,0-3.995-1.787-3.995-3.995s1.787-3.995,3.995-3.995h31.959
		c2.208,0,3.994,1.787,3.994,3.995S181.978,163.79,179.77,163.79z"/>
	<path style="fill:#3A3847;" d="M179.77,163.79c-2.208,0-3.995-1.787-3.995-3.995v-31.959c0-2.208,1.787-3.995,3.995-3.995
		s3.994,1.787,3.994,3.995v31.959C183.764,162.003,181.978,163.79,179.77,163.79z"/>
	<path style="fill:#3A3847;" d="M179.77,131.831h-31.959c-2.208,0-3.995-1.787-3.995-3.995c0-2.208,1.787-3.995,3.995-3.995h31.959
		c2.208,0,3.994,1.787,3.994,3.995C183.764,130.044,181.978,131.831,179.77,131.831z"/>
	<path style="fill:#3A3847;" d="M171.779,147.81H155.8c-2.208,0-3.995-1.787-3.995-3.995s1.787-3.995,3.995-3.995h15.979
		c2.208,0,3.995,1.787,3.995,3.995S173.987,147.81,171.779,147.81z"/>
	<path style="fill:#3A3847;" d="M310.602,507.35H43.943c-2.208,0-3.995-1.787-3.995-3.995s1.787-3.995,3.995-3.995h266.659
		c2.208,0,3.995,1.787,3.995,3.995S312.81,507.35,310.602,507.35z"/>
</g>
<g>
</g>
<g>
</g>
<g>
</g>
<g>
</g>
<g>
</g>
<g>
</g>
<g>
</g>
<g>
</g>
<g>
</g>
<g>
</g>
<g>
</g>
<g>
</g>
<g>
</g>
<g>
</g>
<g>
</g>
</svg>
